<svg xmlns="http://www.w3.org/2000/svg" xmlns:xlink="http://www.w3.org/1999/xlink"><defs>
<clipPath id="clip0">
<rect width="24" height="24" fill="white"/>
</clipPath>
</defs><symbol id="cart" viewBox="0 0 24 29">
<path d="M17.8571 9.8V7.4H8.33333V9.8H17.8571ZM7.14286 24.2C6.51139 24.2 5.90578 24.4529 5.45927 24.9029C5.01275 25.353 4.7619 25.9635 4.7619 26.6C4.7619 27.2365 5.01275 27.847 5.45927 28.2971C5.90578 28.7471 6.51139 29 7.14286 29C7.77432 29 8.37993 28.7471 8.82644 28.2971C9.27296 27.847 9.52381 27.2365 9.52381 26.6C9.52381 25.9635 9.27296 25.353 8.82644 24.9029C8.37993 24.4529 7.77432 24.2 7.14286 24.2ZM19.0476 24.2C18.4162 24.2 17.8105 24.4529 17.364 24.9029C16.9175 25.353 16.6667 25.9635 16.6667 26.6C16.6667 27.2365 16.9175 27.847 17.364 28.2971C17.8105 28.7471 18.4162 29 19.0476 29C19.6791 29 20.2847 28.7471 20.7312 28.2971C21.1777 27.847 21.4286 27.2365 21.4286 26.6C21.4286 25.9635 21.1777 25.353 20.7312 24.9029C20.2847 24.4529 19.6791 24.2 19.0476 24.2ZM7.34524 20.3L7.38095 20.156L8.45238 18.2H17.3214C18.2143 18.2 19 17.708 19.4048 16.964L24 8.552L21.9286 7.4H21.9167L20.6071 9.8L17.3214 15.8H8.96428L8.80952 15.476L6.14286 9.8L5.0119 7.4L3.89286 5H0V7.4H2.38095L6.66667 16.508L5.05952 19.448C4.86905 19.784 4.7619 20.18 4.7619 20.6C4.7619 21.2365 5.01275 21.847 5.45927 22.2971C5.90578 22.7471 6.51139 23 7.14286 23H21.4286V20.6H7.64286C7.4881 20.6 7.34524 20.468 7.34524 20.3Z" fill="#222222"/>
</symbol><symbol id="inst" viewBox="0 0 17 16">
<path d="M5.75063 8C5.75063 6.61934 6.92556 5.4998 8.37532 5.4998C9.82507 5.4998 11.0006 6.61934 11.0006 8C11.0006 9.38066 9.82507 10.5002 8.37532 10.5002C6.92556 10.5002 5.75063 9.38066 5.75063 8ZM4.33144 8C4.33144 10.127 6.14188 11.8512 8.37532 11.8512C10.6088 11.8512 12.4192 10.127 12.4192 8C12.4192 5.873 10.6088 4.14884 8.37532 4.14884C6.14188 4.14884 4.33144 5.873 4.33144 8ZM11.6342 3.99614C11.6342 4.17414 11.6895 4.34817 11.7933 4.49621C11.8971 4.64426 12.0446 4.75967 12.2173 4.82785C12.3899 4.89604 12.5799 4.91393 12.7633 4.87928C12.9466 4.84462 13.115 4.75897 13.2473 4.63315C13.3795 4.50733 13.4696 4.347 13.5061 4.17243C13.5426 3.99787 13.524 3.8169 13.4525 3.65242C13.3811 3.48794 13.26 3.34733 13.1046 3.24838C12.9493 3.14943 12.7666 3.09657 12.5797 3.0965H12.5793C12.3287 3.09661 12.0885 3.19142 11.9113 3.3601C11.7341 3.52878 11.6345 3.75754 11.6342 3.99614ZM5.19369 14.1048C4.42588 14.0715 4.00855 13.9497 3.73121 13.8468C3.36353 13.7105 3.10119 13.5481 2.82536 13.2858C2.54954 13.0235 2.3788 12.7739 2.23629 12.4237C2.12817 12.1597 2.00028 11.7622 1.96538 11.031C1.9272 10.2404 1.91957 10.0029 1.91957 8.00006C1.91957 5.9972 1.92783 5.76038 1.96538 4.96916C2.00034 4.23794 2.12918 3.84116 2.23629 3.57638C2.37943 3.22622 2.54991 2.97638 2.82536 2.7137C3.10081 2.45102 3.3629 2.28842 3.73121 2.1527C4.00842 2.04974 4.42588 1.92794 5.19369 1.8947C6.02381 1.85834 6.27317 1.85108 8.37532 1.85108C10.4775 1.85108 10.7271 1.85894 11.5579 1.8947C12.3257 1.928 12.7423 2.0507 13.0204 2.1527C13.388 2.28842 13.6504 2.45138 13.9262 2.7137C14.202 2.97602 14.3721 3.22622 14.5153 3.57638C14.6234 3.84038 14.7513 4.23794 14.7862 4.96916C14.8244 5.76038 14.832 5.9972 14.832 8.00006C14.832 10.0029 14.8244 10.2397 14.7862 11.031C14.7512 11.7622 14.6227 12.1596 14.5153 12.4237C14.3721 12.7739 14.2017 13.0237 13.9262 13.2858C13.6508 13.5479 13.388 13.7105 13.0204 13.8468C12.7432 13.9498 12.3257 14.0716 11.5579 14.1048C10.7278 14.1412 10.4784 14.1484 8.37532 14.1484C6.27223 14.1484 6.02356 14.1412 5.19369 14.1048ZM5.12848 0.54542C4.29011 0.58178 3.71722 0.70838 3.21692 0.89378C2.69879 1.08524 2.26016 1.3421 1.82186 1.75886C1.38355 2.17562 1.11453 2.594 0.913486 3.08744C0.718808 3.5642 0.585872 4.10948 0.547693 4.9079C0.508883 5.70758 0.5 5.96324 0.5 8C0.5 10.0368 0.508883 10.2924 0.547693 11.0921C0.585872 11.8906 0.718808 12.4358 0.913486 12.9126C1.11453 13.4057 1.38361 13.8246 1.82186 14.2411C2.2601 14.6577 2.69879 14.9142 3.21692 15.1062C3.71817 15.2916 4.29011 15.4182 5.12848 15.4546C5.96862 15.4909 6.23663 15.5 8.37532 15.5C10.514 15.5 10.7825 15.4915 11.6222 15.4546C12.4606 15.4182 13.0331 15.2916 13.5337 15.1062C14.0515 14.9142 14.4905 14.6579 14.9288 14.2411C15.3671 13.8244 15.6355 13.4057 15.8371 12.9126C16.0318 12.4358 16.1654 11.8905 16.2029 11.0921C16.2411 10.2918 16.25 10.0368 16.25 8C16.25 5.96324 16.2411 5.70758 16.2029 4.9079C16.1648 4.10942 16.0318 3.5639 15.8371 3.08744C15.6355 2.5943 15.3664 2.17628 14.9288 1.75886C14.4912 1.34144 14.0515 1.08524 13.5343 0.89378C13.0331 0.70838 12.4605 0.58118 11.6228 0.54542C10.7831 0.50906 10.5146 0.5 8.37595 0.5C6.23726 0.5 5.96862 0.50846 5.12848 0.54542Z" fill="#222222"/>
</symbol><symbol id="search" viewBox="0 0 18 18">
<path d="M7.69765 15.3945C9.47389 15.3945 11.1068 14.7835 12.4096 13.7704L16.6394 18L18 16.6395L13.7701 12.4099C14.7843 11.1062 15.3953 9.47338 15.3953 7.69724C15.3953 3.45318 11.9419 0 7.69765 0C3.45336 0 0 3.45318 0 7.69724C0 11.9413 3.45336 15.3945 7.69765 15.3945ZM7.69765 1.92431C10.8816 1.92431 13.4709 4.51347 13.4709 7.69724C13.4709 10.881 10.8816 13.4702 7.69765 13.4702C4.51371 13.4702 1.92441 10.881 1.92441 7.69724C1.92441 4.51347 4.51371 1.92431 7.69765 1.92431Z" fill="#222222"/>
</symbol><symbol id="user" viewBox="0 0 24 24">
<g clip-path="url(#clip0)">
<path d="M12.0127 1.93573C9.2557 1.93573 7.0127 4.17873 7.0127 6.93573C7.0127 9.69273 9.2557 11.9357 12.0127 11.9357C14.7697 11.9357 17.0127 9.69273 17.0127 6.93573C17.0127 4.17873 14.7697 1.93573 12.0127 1.93573ZM12.0127 9.93573C10.3587 9.93573 9.0127 8.58973 9.0127 6.93573C9.0127 5.28173 10.3587 3.93573 12.0127 3.93573C13.6667 3.93573 15.0127 5.28173 15.0127 6.93573C15.0127 8.58973 13.6667 9.93573 12.0127 9.93573ZM21.0127 20.9357V19.9357C21.0127 16.0767 17.8717 12.9357 14.0127 12.9357H10.0127C6.1527 12.9357 3.0127 16.0767 3.0127 19.9357V20.9357H5.0127V19.9357C5.0127 17.1787 7.2557 14.9357 10.0127 14.9357H14.0127C16.7697 14.9357 19.0127 17.1787 19.0127 19.9357V20.9357H21.0127Z" fill="#222222"/>
</g>

</symbol><symbol id="vk" viewBox="0 0 18 11">
<path fill-rule="evenodd" clip-rule="evenodd" d="M16.8714 1.16018C16.9862 0.779672 16.8714 0.5 16.3255 0.5H14.5204C14.0614 0.5 13.8499 0.741569 13.7352 1.00803C13.7352 1.00803 12.8172 3.23423 11.5167 4.68031C11.096 5.09892 10.9048 5.23196 10.6753 5.23196C10.5605 5.23196 10.3944 5.09892 10.3944 4.71842V1.16018C10.3944 0.703468 10.2612 0.5 9.87869 0.5H7.04209C6.75534 0.5 6.58282 0.711935 6.58282 0.912836C6.58282 1.34581 7.23292 1.44562 7.29997 2.66335V5.30829C7.29997 5.88816 7.19475 5.99336 6.96525 5.99336C6.35332 5.99336 4.86487 3.75701 3.98192 1.19828C3.80889 0.700901 3.63534 0.5 3.174 0.5H1.36889C0.853149 0.5 0.75 0.741569 0.75 1.00803C0.75 1.48372 1.36206 3.84322 3.59949 6.96374C5.09129 9.09463 7.19269 10.25 9.10508 10.25C10.2526 10.25 10.3944 9.99342 10.3944 9.55146V7.94079C10.3944 7.42763 10.5031 7.32526 10.8663 7.32526C11.1343 7.32526 11.5932 7.45842 12.6642 8.48589C13.8881 9.70349 14.0898 10.25 14.7783 10.25H16.5834C17.0991 10.25 17.357 9.99342 17.2082 9.48706C17.0455 8.98237 16.4612 8.25035 15.6857 7.38235C15.265 6.88753 14.6339 6.35475 14.4428 6.08842C14.175 5.74588 14.2514 5.59373 14.4428 5.28943C14.4428 5.28943 16.6419 2.20689 16.8714 1.16031V1.16018Z" fill="#222222"/>
</symbol><symbol id="whatsapp-footer" viewBox="0 0 15 15">
<path d="M12.4421 2.32973C11.1219 0.981757 9.297 0.25 7.43324 0.25C3.47275 0.25 0.288828 3.44662 0.327657 7.33649C0.327657 8.56892 0.677112 9.76284 1.25954 10.8412L0.25 14.5L4.01635 13.5372C5.06471 14.1149 6.22956 14.3845 7.39441 14.3845C11.3161 14.3845 14.5 11.1878 14.5 7.29797C14.5 5.41081 13.7623 3.63919 12.4421 2.32973ZM7.43324 13.1905C6.38488 13.1905 5.33651 12.9209 4.44346 12.3818L4.21049 12.2662L1.95845 12.8439L2.54087 10.6486L2.38556 10.4176C0.677112 7.68311 1.49251 4.06284 4.28815 2.36824C7.08379 0.673649 10.6948 1.48243 12.4033 4.25541C14.1117 7.02838 13.2963 10.6101 10.5007 12.3047C9.60763 12.8824 8.52044 13.1905 7.43324 13.1905ZM10.8501 8.91554L10.423 8.72297C10.423 8.72297 9.80177 8.45338 9.41349 8.26081C9.37466 8.26081 9.33583 8.2223 9.297 8.2223C9.18052 8.2223 9.10286 8.26081 9.0252 8.29932C9.0252 8.29932 8.98638 8.33784 8.44278 8.95405C8.40395 9.03108 8.32629 9.06959 8.24864 9.06959H8.20981C8.17098 9.06959 8.09332 9.03108 8.0545 8.99257L7.86035 8.91554C7.43324 8.72297 7.04496 8.49189 6.73433 8.18378C6.65668 8.10676 6.54019 8.02973 6.46253 7.9527C6.19074 7.68311 5.91894 7.375 5.7248 7.02838L5.68597 6.95135C5.64714 6.91284 5.64714 6.87432 5.60831 6.7973C5.60831 6.72027 5.60831 6.64324 5.64714 6.60473C5.64714 6.60473 5.80245 6.41216 5.91894 6.29662C5.99659 6.21959 6.03542 6.10405 6.11308 6.02703C6.19074 5.91149 6.22956 5.75743 6.19074 5.64189C6.15191 5.44932 5.68597 4.40946 5.56948 4.17838C5.49183 4.06284 5.41417 4.02432 5.29768 3.98581H5.1812C5.10354 3.98581 4.98706 3.98581 4.87057 3.98581C4.79292 3.98581 4.71526 4.02432 4.6376 4.02432L4.59877 4.06284C4.52112 4.10135 4.44346 4.17838 4.3658 4.21689C4.28815 4.29392 4.24932 4.37095 4.17166 4.44797C3.89986 4.79459 3.74455 5.21824 3.74455 5.64189C3.74455 5.95 3.82221 6.25811 3.93869 6.5277L3.97752 6.64324C4.32698 7.375 4.79292 8.02973 5.41417 8.60743L5.56948 8.76149C5.68597 8.87703 5.80245 8.95405 5.88011 9.06959C6.6955 9.76284 7.62738 10.2635 8.67575 10.5331C8.79223 10.5716 8.94755 10.5716 9.06403 10.6101C9.18052 10.6101 9.33583 10.6101 9.45232 10.6101C9.64646 10.6101 9.87943 10.5331 10.0347 10.4561C10.1512 10.3791 10.2289 10.3791 10.3065 10.302L10.3842 10.225C10.4619 10.148 10.5395 10.1095 10.6172 10.0324C10.6948 9.95541 10.7725 9.87838 10.8113 9.80135C10.889 9.6473 10.9278 9.45473 10.9666 9.26216C10.9666 9.18513 10.9666 9.0696 10.9666 8.99257C10.9666 8.99257 10.9278 8.95405 10.8501 8.91554Z" fill="#222222"/>
</symbol><symbol id="whatsapp" viewBox="0 0 30 31">
<path d="M30 15.1304C30 23.0491 23.407 29.4684 15.2727 29.4684C12.6903 29.4684 10.2643 28.8208 8.15367 27.6843L0 30.2264L2.65833 22.5337C1.31733 20.3733 0.545 17.8393 0.545 15.1304C0.545 7.2117 7.13867 0.79248 15.273 0.79248C23.4077 0.79248 30 7.2117 30 15.1304ZM15.2727 3.0759C8.44467 3.0759 2.89067 8.48358 2.89067 15.1304C2.89067 17.7684 3.767 20.211 5.24933 22.1982L3.70233 26.6747L8.46067 25.1909C10.4157 26.4504 12.7577 27.1849 15.273 27.1849C22.1 27.1849 27.655 21.7779 27.655 15.1307C27.6547 8.4839 22.1003 3.0759 15.2727 3.0759ZM22.7097 18.4326C22.6187 18.2864 22.3783 18.1981 22.0177 18.0225C21.6563 17.8468 19.881 16.9962 19.551 16.8798C19.22 16.7624 18.9787 16.7035 18.7383 17.0551C18.498 17.407 17.806 18.1981 17.595 18.4326C17.3843 18.6677 17.174 18.6972 16.8127 18.5212C16.452 18.3456 15.289 17.9741 13.91 16.7768C12.837 15.8457 12.1123 14.6954 11.9017 14.3435C11.6913 13.992 11.8797 13.802 12.06 13.627C12.2227 13.4694 12.4213 13.2166 12.6017 13.0115C12.7827 12.8061 12.8427 12.6599 12.9623 12.4251C13.0833 12.1906 13.023 11.9856 12.9323 11.8093C12.8423 11.6337 12.1197 9.90425 11.819 9.20078C11.5183 8.49731 11.218 8.61439 11.007 8.61439C10.7967 8.61439 10.5557 8.58496 10.315 8.58496C10.0743 8.58496 9.683 8.67293 9.352 9.02451C9.02133 9.3764 8.089 10.2267 8.089 11.9558C8.089 13.6852 9.382 15.3561 9.563 15.5906C9.74333 15.8247 12.0597 19.4889 15.7297 20.8962C19.4 22.3025 19.4 21.8332 20.062 21.7743C20.7233 21.7158 22.1973 20.9243 22.4993 20.1041C22.7993 19.2826 22.7993 18.5791 22.7097 18.4326Z" fill="currentColor"/>
</symbol></svg>